<svg xmlns="http://www.w3.org/2000/svg" xmlns:xlink="http://www.w3.org/1999/xlink" width="58" zoomAndPan="magnify" viewBox="0 0 43.5 43.499999" height="58" preserveAspectRatio="xMidYMid meet" version="1.0"><defs><clipPath id="44ccaac7f5"><path d="M 0 0 L 42.828125 0 L 42.828125 42.828125 L 0 42.828125 Z M 0 0 " clip-rule="nonzero"/></clipPath><clipPath id="6f22db70e4"><path d="M 0 1 L 42.828125 1 L 42.828125 42 L 0 42 Z M 0 1 " clip-rule="nonzero"/></clipPath><clipPath id="4ae7953a73"><rect x="0" width="43" y="0" height="43"/></clipPath></defs><g><g clip-path="url(#4ae7953a73)"><g clip-path="url(#44ccaac7f5)"><path fill="#ffffff" d="M 0 0 L 42.828125 0 L 42.828125 42.828125 L 0 42.828125 Z M 0 0 " fill-opacity="1" fill-rule="nonzero"/></g><path fill="#ffffff" d="M 1.382812 2.074219 L 11.050781 2.074219 M 12.433594 2.074219 L 13.816406 2.074219 M 16.578125 2.074219 L 19.339844 2.074219 M 31.777344 2.074219 L 41.445312 2.074219 M 1.382812 3.453125 L 2.761719 3.453125 M 9.671875 3.453125 L 11.050781 3.453125 M 13.816406 3.453125 L 16.578125 3.453125 M 23.484375 3.453125 L 26.25 3.453125 M 27.632812 3.453125 L 29.011719 3.453125 M 31.777344 3.453125 L 33.15625 3.453125 M 40.066406 3.453125 L 41.445312 3.453125 M 1.382812 4.835938 L 2.761719 4.835938 M 4.144531 4.835938 L 8.289062 4.835938 M 9.671875 4.835938 L 11.050781 4.835938 M 13.816406 4.835938 L 15.195312 4.835938 M 16.578125 4.835938 L 17.960938 4.835938 M 19.339844 4.835938 L 20.722656 4.835938 M 22.105469 4.835938 L 26.25 4.835938 M 31.777344 4.835938 L 33.15625 4.835938 M 34.539062 4.835938 L 38.683594 4.835938 M 40.066406 4.835938 L 41.445312 4.835938 M 1.382812 6.21875 L 2.761719 6.21875 M 4.144531 6.21875 L 8.289062 6.21875 M 9.671875 6.21875 L 11.050781 6.21875 M 12.433594 6.21875 L 13.816406 6.21875 M 15.195312 6.21875 L 19.339844 6.21875 M 20.722656 6.21875 L 24.867188 6.21875 M 26.25 6.21875 L 29.011719 6.21875 M 31.777344 6.21875 L 33.15625 6.21875 M 34.539062 6.21875 L 38.683594 6.21875 M 40.066406 6.21875 L 41.445312 6.21875 M 1.382812 7.597656 L 2.761719 7.597656 M 4.144531 7.597656 L 8.289062 7.597656 M 9.671875 7.597656 L 11.050781 7.597656 M 12.433594 7.597656 L 13.816406 7.597656 M 15.195312 7.597656 L 16.578125 7.597656 M 19.339844 7.597656 L 22.105469 7.597656 M 23.484375 7.597656 L 24.867188 7.597656 M 26.25 7.597656 L 27.632812 7.597656 M 31.777344 7.597656 L 33.15625 7.597656 M 34.539062 7.597656 L 38.683594 7.597656 M 40.066406 7.597656 L 41.445312 7.597656 M 1.382812 8.980469 L 2.761719 8.980469 M 9.671875 8.980469 L 11.050781 8.980469 M 12.433594 8.980469 L 13.816406 8.980469 M 19.339844 8.980469 L 23.484375 8.980469 M 27.632812 8.980469 L 30.394531 8.980469 M 31.777344 8.980469 L 33.15625 8.980469 M 40.066406 8.980469 L 41.445312 8.980469 M 1.382812 10.363281 L 11.050781 10.363281 M 12.433594 10.363281 L 13.816406 10.363281 M 15.195312 10.363281 L 16.578125 10.363281 M 17.960938 10.363281 L 19.339844 10.363281 M 20.722656 10.363281 L 22.105469 10.363281 M 23.484375 10.363281 L 24.867188 10.363281 M 26.25 10.363281 L 27.632812 10.363281 M 29.011719 10.363281 L 30.394531 10.363281 M 31.777344 10.363281 L 41.445312 10.363281 M 12.433594 11.742188 L 13.816406 11.742188 M 20.722656 11.742188 L 22.105469 11.742188 M 24.867188 11.742188 L 27.632812 11.742188 M 29.011719 11.742188 L 30.394531 11.742188 M 1.382812 13.125 L 2.761719 13.125 M 6.90625 13.125 L 8.289062 13.125 M 9.671875 13.125 L 13.816406 13.125 M 15.195312 13.125 L 16.578125 13.125 M 19.339844 13.125 L 27.632812 13.125 M 29.011719 13.125 L 37.300781 13.125 M 40.066406 13.125 L 41.445312 13.125 M 1.382812 14.507812 L 5.527344 14.507812 M 11.050781 14.507812 L 12.433594 14.507812 M 13.816406 14.507812 L 19.339844 14.507812 M 24.867188 14.507812 L 27.632812 14.507812 M 31.777344 14.507812 L 41.445312 14.507812 M 8.289062 15.886719 L 11.050781 15.886719 M 12.433594 15.886719 L 16.578125 15.886719 M 19.339844 15.886719 L 23.484375 15.886719 M 26.25 15.886719 L 27.632812 15.886719 M 31.777344 15.886719 L 33.15625 15.886719 M 40.066406 15.886719 L 41.445312 15.886719 M 1.382812 17.269531 L 4.144531 17.269531 M 5.527344 17.269531 L 6.90625 17.269531 M 8.289062 17.269531 L 9.671875 17.269531 M 11.050781 17.269531 L 12.433594 17.269531 M 15.195312 17.269531 L 17.960938 17.269531 M 19.339844 17.269531 L 20.722656 17.269531 M 22.105469 17.269531 L 30.394531 17.269531 M 31.777344 17.269531 L 37.300781 17.269531 M 38.683594 17.269531 L 41.445312 17.269531 M 1.382812 18.652344 L 2.761719 18.652344 M 6.90625 18.652344 L 8.289062 18.652344 M 9.671875 18.652344 L 11.050781 18.652344 M 12.433594 18.652344 L 13.816406 18.652344 M 19.339844 18.652344 L 20.722656 18.652344 M 24.867188 18.652344 L 26.25 18.652344 M 29.011719 18.652344 L 31.777344 18.652344 M 38.683594 18.652344 L 40.066406 18.652344 M 4.144531 20.03125 L 5.527344 20.03125 M 11.050781 20.03125 L 12.433594 20.03125 M 15.195312 20.03125 L 22.105469 20.03125 M 23.484375 20.03125 L 24.867188 20.03125 M 26.25 20.03125 L 27.632812 20.03125 M 29.011719 20.03125 L 41.445312 20.03125 M 1.382812 21.414062 L 2.761719 21.414062 M 4.144531 21.414062 L 8.289062 21.414062 M 9.671875 21.414062 L 13.816406 21.414062 M 16.578125 21.414062 L 17.960938 21.414062 M 23.484375 21.414062 L 26.25 21.414062 M 29.011719 21.414062 L 30.394531 21.414062 M 31.777344 21.414062 L 34.539062 21.414062 M 35.921875 21.414062 L 38.683594 21.414062 M 40.066406 21.414062 L 41.445312 21.414062 M 2.761719 22.796875 L 5.527344 22.796875 M 6.90625 22.796875 L 8.289062 22.796875 M 12.433594 22.796875 L 15.195312 22.796875 M 20.722656 22.796875 L 22.105469 22.796875 M 24.867188 22.796875 L 27.632812 22.796875 M 30.394531 22.796875 L 31.777344 22.796875 M 34.539062 22.796875 L 35.921875 22.796875 M 38.683594 22.796875 L 41.445312 22.796875 M 6.90625 24.175781 L 11.050781 24.175781 M 13.816406 24.175781 L 15.195312 24.175781 M 17.960938 24.175781 L 26.25 24.175781 M 30.394531 24.175781 L 31.777344 24.175781 M 38.683594 24.175781 L 40.066406 24.175781 M 1.382812 25.558594 L 8.289062 25.558594 M 11.050781 25.558594 L 13.816406 25.558594 M 15.195312 25.558594 L 16.578125 25.558594 M 17.960938 25.558594 L 19.339844 25.558594 M 26.25 25.558594 L 27.632812 25.558594 M 31.777344 25.558594 L 37.300781 25.558594 M 38.683594 25.558594 L 41.445312 25.558594 M 5.527344 26.941406 L 11.050781 26.941406 M 13.816406 26.941406 L 17.960938 26.941406 M 19.339844 26.941406 L 23.484375 26.941406 M 29.011719 26.941406 L 30.394531 26.941406 M 31.777344 26.941406 L 33.15625 26.941406 M 37.300781 26.941406 L 38.683594 26.941406 M 40.066406 26.941406 L 41.445312 26.941406 M 8.289062 28.320312 L 9.671875 28.320312 M 12.433594 28.320312 L 15.195312 28.320312 M 17.960938 28.320312 L 20.722656 28.320312 M 22.105469 28.320312 L 26.25 28.320312 M 29.011719 28.320312 L 30.394531 28.320312 M 31.777344 28.320312 L 33.15625 28.320312 M 38.683594 28.320312 L 41.445312 28.320312 M 1.382812 29.703125 L 5.527344 29.703125 M 6.90625 29.703125 L 8.289062 29.703125 M 9.671875 29.703125 L 11.050781 29.703125 M 12.433594 29.703125 L 15.195312 29.703125 M 16.578125 29.703125 L 17.960938 29.703125 M 19.339844 29.703125 L 20.722656 29.703125 M 24.867188 29.703125 L 26.25 29.703125 M 27.632812 29.703125 L 37.300781 29.703125 M 40.066406 29.703125 L 41.445312 29.703125 M 12.433594 31.085938 L 13.816406 31.085938 M 17.960938 31.085938 L 22.105469 31.085938 M 23.484375 31.085938 L 30.394531 31.085938 M 34.539062 31.085938 L 35.921875 31.085938 M 40.066406 31.085938 L 41.445312 31.085938 M 1.382812 32.464844 L 11.050781 32.464844 M 12.433594 32.464844 L 13.816406 32.464844 M 17.960938 32.464844 L 19.339844 32.464844 M 23.484375 32.464844 L 24.867188 32.464844 M 26.25 32.464844 L 30.394531 32.464844 M 31.777344 32.464844 L 33.15625 32.464844 M 34.539062 32.464844 L 38.683594 32.464844 M 40.066406 32.464844 L 41.445312 32.464844 M 1.382812 33.847656 L 2.761719 33.847656 M 9.671875 33.847656 L 11.050781 33.847656 M 15.195312 33.847656 L 16.578125 33.847656 M 20.722656 33.847656 L 22.105469 33.847656 M 24.867188 33.847656 L 30.394531 33.847656 M 34.539062 33.847656 L 35.921875 33.847656 M 38.683594 33.847656 L 40.066406 33.847656 M 1.382812 35.230469 L 2.761719 35.230469 M 4.144531 35.230469 L 8.289062 35.230469 M 9.671875 35.230469 L 11.050781 35.230469 M 12.433594 35.230469 L 13.816406 35.230469 M 15.195312 35.230469 L 16.578125 35.230469 M 17.960938 35.230469 L 23.484375 35.230469 M 24.867188 35.230469 L 26.25 35.230469 M 27.632812 35.230469 L 37.300781 35.230469 M 38.683594 35.230469 L 41.445312 35.230469 M 1.382812 36.609375 L 2.761719 36.609375 M 4.144531 36.609375 L 8.289062 36.609375 M 9.671875 36.609375 L 11.050781 36.609375 M 13.816406 36.609375 L 15.195312 36.609375 M 16.578125 36.609375 L 19.339844 36.609375 M 27.632812 36.609375 L 29.011719 36.609375 M 30.394531 36.609375 L 31.777344 36.609375 M 38.683594 36.609375 L 40.066406 36.609375 M 1.382812 37.992188 L 2.761719 37.992188 M 4.144531 37.992188 L 8.289062 37.992188 M 9.671875 37.992188 L 11.050781 37.992188 M 13.816406 37.992188 L 15.195312 37.992188 M 20.722656 37.992188 L 27.632812 37.992188 M 30.394531 37.992188 L 31.777344 37.992188 M 35.921875 37.992188 L 41.445312 37.992188 M 1.382812 39.375 L 2.761719 39.375 M 9.671875 39.375 L 11.050781 39.375 M 22.105469 39.375 L 23.484375 39.375 M 24.867188 39.375 L 27.632812 39.375 M 29.011719 39.375 L 30.394531 39.375 M 33.15625 39.375 L 37.300781 39.375 M 38.683594 39.375 L 41.445312 39.375 M 1.382812 40.753906 L 11.050781 40.753906 M 12.433594 40.753906 L 15.195312 40.753906 M 16.578125 40.753906 L 17.960938 40.753906 M 19.339844 40.753906 L 22.105469 40.753906 M 23.484375 40.753906 L 26.25 40.753906 M 29.011719 40.753906 L 33.15625 40.753906 M 34.539062 40.753906 L 37.300781 40.753906 M 38.683594 40.753906 L 40.066406 40.753906 " fill-opacity="1" fill-rule="nonzero"/><g clip-path="url(#6f22db70e4)"><path stroke-linecap="butt" transform="matrix(1.381547, 0, 0, 1.381547, 0.0000005, 0)" fill="none" stroke-linejoin="miter" d="M 1.000916 1.501374 L 7.998845 1.501374 M 8.999761 1.501374 L 10.000677 1.501374 M 11.999682 1.501374 L 13.998686 1.501374 M 23.001275 1.501374 L 29.999205 1.501374 M 1.000916 2.499463 L 1.999004 2.499463 M 7.000757 2.499463 L 7.998845 2.499463 M 10.000677 2.499463 L 11.999682 2.499463 M 16.998607 2.499463 L 19.000439 2.499463 M 20.001355 2.499463 L 20.999443 2.499463 M 23.001275 2.499463 L 23.999364 2.499463 M 29.001116 2.499463 L 29.999205 2.499463 M 1.000916 3.500379 L 1.999004 3.500379 M 2.99992 3.500379 L 5.999841 3.500379 M 7.000757 3.500379 L 7.998845 3.500379 M 10.000677 3.500379 L 10.998766 3.500379 M 11.999682 3.500379 L 13.000598 3.500379 M 13.998686 3.500379 L 14.999602 3.500379 M 16.000518 3.500379 L 19.000439 3.500379 M 23.001275 3.500379 L 23.999364 3.500379 M 25.00028 3.500379 L 28.0002 3.500379 M 29.001116 3.500379 L 29.999205 3.500379 M 1.000916 4.501295 L 1.999004 4.501295 M 2.99992 4.501295 L 5.999841 4.501295 M 7.000757 4.501295 L 7.998845 4.501295 M 8.999761 4.501295 L 10.000677 4.501295 M 10.998766 4.501295 L 13.998686 4.501295 M 14.999602 4.501295 L 17.999523 4.501295 M 19.000439 4.501295 L 20.999443 4.501295 M 23.001275 4.501295 L 23.999364 4.501295 M 25.00028 4.501295 L 28.0002 4.501295 M 29.001116 4.501295 L 29.999205 4.501295 M 1.000916 5.499383 L 1.999004 5.499383 M 2.99992 5.499383 L 5.999841 5.499383 M 7.000757 5.499383 L 7.998845 5.499383 M 8.999761 5.499383 L 10.000677 5.499383 M 10.998766 5.499383 L 11.999682 5.499383 M 13.998686 5.499383 L 16.000518 5.499383 M 16.998607 5.499383 L 17.999523 5.499383 M 19.000439 5.499383 L 20.001355 5.499383 M 23.001275 5.499383 L 23.999364 5.499383 M 25.00028 5.499383 L 28.0002 5.499383 M 29.001116 5.499383 L 29.999205 5.499383 M 1.000916 6.500299 L 1.999004 6.500299 M 7.000757 6.500299 L 7.998845 6.500299 M 8.999761 6.500299 L 10.000677 6.500299 M 13.998686 6.500299 L 16.998607 6.500299 M 20.001355 6.500299 L 22.000359 6.500299 M 23.001275 6.500299 L 23.999364 6.500299 M 29.001116 6.500299 L 29.999205 6.500299 M 1.000916 7.501215 L 7.998845 7.501215 M 8.999761 7.501215 L 10.000677 7.501215 M 10.998766 7.501215 L 11.999682 7.501215 M 13.000598 7.501215 L 13.998686 7.501215 M 14.999602 7.501215 L 16.000518 7.501215 M 16.998607 7.501215 L 17.999523 7.501215 M 19.000439 7.501215 L 20.001355 7.501215 M 20.999443 7.501215 L 22.000359 7.501215 M 23.001275 7.501215 L 29.999205 7.501215 M 8.999761 8.499304 L 10.000677 8.499304 M 14.999602 8.499304 L 16.000518 8.499304 M 17.999523 8.499304 L 20.001355 8.499304 M 20.999443 8.499304 L 22.000359 8.499304 M 1.000916 9.50022 L 1.999004 9.50022 M 4.998925 9.50022 L 5.999841 9.50022 M 7.000757 9.50022 L 10.000677 9.50022 M 10.998766 9.50022 L 11.999682 9.50022 M 13.998686 9.50022 L 20.001355 9.50022 M 20.999443 9.50022 L 26.999284 9.50022 M 29.001116 9.50022 L 29.999205 9.50022 M 1.000916 10.501136 L 4.000836 10.501136 M 7.998845 10.501136 L 8.999761 10.501136 M 10.000677 10.501136 L 13.998686 10.501136 M 17.999523 10.501136 L 20.001355 10.501136 M 23.001275 10.501136 L 29.999205 10.501136 M 5.999841 11.499224 L 7.998845 11.499224 M 8.999761 11.499224 L 11.999682 11.499224 M 13.998686 11.499224 L 16.998607 11.499224 M 19.000439 11.499224 L 20.001355 11.499224 M 23.001275 11.499224 L 23.999364 11.499224 M 29.001116 11.499224 L 29.999205 11.499224 M 1.000916 12.50014 L 2.99992 12.50014 M 4.000836 12.50014 L 4.998925 12.50014 M 5.999841 12.50014 L 7.000757 12.50014 M 7.998845 12.50014 L 8.999761 12.50014 M 10.998766 12.50014 L 13.000598 12.50014 M 13.998686 12.50014 L 14.999602 12.50014 M 16.000518 12.50014 L 22.000359 12.50014 M 23.001275 12.50014 L 26.999284 12.50014 M 28.0002 12.50014 L 29.999205 12.50014 M 1.000916 13.501056 L 1.999004 13.501056 M 4.998925 13.501056 L 5.999841 13.501056 M 7.000757 13.501056 L 7.998845 13.501056 M 8.999761 13.501056 L 10.000677 13.501056 M 13.998686 13.501056 L 14.999602 13.501056 M 17.999523 13.501056 L 19.000439 13.501056 M 20.999443 13.501056 L 23.001275 13.501056 M 28.0002 13.501056 L 29.001116 13.501056 M 2.99992 14.499145 L 4.000836 14.499145 M 7.998845 14.499145 L 8.999761 14.499145 M 10.998766 14.499145 L 16.000518 14.499145 M 16.998607 14.499145 L 17.999523 14.499145 M 19.000439 14.499145 L 20.001355 14.499145 M 20.999443 14.499145 L 29.999205 14.499145 M 1.000916 15.500061 L 1.999004 15.500061 M 2.99992 15.500061 L 5.999841 15.500061 M 7.000757 15.500061 L 10.000677 15.500061 M 11.999682 15.500061 L 13.000598 15.500061 M 16.998607 15.500061 L 19.000439 15.500061 M 20.999443 15.500061 L 22.000359 15.500061 M 23.001275 15.500061 L 25.00028 15.500061 M 26.001196 15.500061 L 28.0002 15.500061 M 29.001116 15.500061 L 29.999205 15.500061 M 1.999004 16.500977 L 4.000836 16.500977 M 4.998925 16.500977 L 5.999841 16.500977 M 8.999761 16.500977 L 10.998766 16.500977 M 14.999602 16.500977 L 16.000518 16.500977 M 17.999523 16.500977 L 20.001355 16.500977 M 22.000359 16.500977 L 23.001275 16.500977 M 25.00028 16.500977 L 26.001196 16.500977 M 28.0002 16.500977 L 29.999205 16.500977 M 4.998925 17.499065 L 7.998845 17.499065 M 10.000677 17.499065 L 10.998766 17.499065 M 13.000598 17.499065 L 19.000439 17.499065 M 22.000359 17.499065 L 23.001275 17.499065 M 28.0002 17.499065 L 29.001116 17.499065 M 1.000916 18.499981 L 5.999841 18.499981 M 7.998845 18.499981 L 10.000677 18.499981 M 10.998766 18.499981 L 11.999682 18.499981 M 13.000598 18.499981 L 13.998686 18.499981 M 19.000439 18.499981 L 20.001355 18.499981 M 23.001275 18.499981 L 26.999284 18.499981 M 28.0002 18.499981 L 29.999205 18.499981 M 4.000836 19.500897 L 7.998845 19.500897 M 10.000677 19.500897 L 13.000598 19.500897 M 13.998686 19.500897 L 16.998607 19.500897 M 20.999443 19.500897 L 22.000359 19.500897 M 23.001275 19.500897 L 23.999364 19.500897 M 26.999284 19.500897 L 28.0002 19.500897 M 29.001116 19.500897 L 29.999205 19.500897 M 5.999841 20.498986 L 7.000757 20.498986 M 8.999761 20.498986 L 10.998766 20.498986 M 13.000598 20.498986 L 14.999602 20.498986 M 16.000518 20.498986 L 19.000439 20.498986 M 20.999443 20.498986 L 22.000359 20.498986 M 23.001275 20.498986 L 23.999364 20.498986 M 28.0002 20.498986 L 29.999205 20.498986 M 1.000916 21.499902 L 4.000836 21.499902 M 4.998925 21.499902 L 5.999841 21.499902 M 7.000757 21.499902 L 7.998845 21.499902 M 8.999761 21.499902 L 10.998766 21.499902 M 11.999682 21.499902 L 13.000598 21.499902 M 13.998686 21.499902 L 14.999602 21.499902 M 17.999523 21.499902 L 19.000439 21.499902 M 20.001355 21.499902 L 26.999284 21.499902 M 29.001116 21.499902 L 29.999205 21.499902 M 8.999761 22.500818 L 10.000677 22.500818 M 13.000598 22.500818 L 16.000518 22.500818 M 16.998607 22.500818 L 22.000359 22.500818 M 25.00028 22.500818 L 26.001196 22.500818 M 29.001116 22.500818 L 29.999205 22.500818 M 1.000916 23.498906 L 7.998845 23.498906 M 8.999761 23.498906 L 10.000677 23.498906 M 13.000598 23.498906 L 13.998686 23.498906 M 16.998607 23.498906 L 17.999523 23.498906 M 19.000439 23.498906 L 22.000359 23.498906 M 23.001275 23.498906 L 23.999364 23.498906 M 25.00028 23.498906 L 28.0002 23.498906 M 29.001116 23.498906 L 29.999205 23.498906 M 1.000916 24.499822 L 1.999004 24.499822 M 7.000757 24.499822 L 7.998845 24.499822 M 10.998766 24.499822 L 11.999682 24.499822 M 14.999602 24.499822 L 16.000518 24.499822 M 17.999523 24.499822 L 22.000359 24.499822 M 25.00028 24.499822 L 26.001196 24.499822 M 28.0002 24.499822 L 29.001116 24.499822 M 1.000916 25.500738 L 1.999004 25.500738 M 2.99992 25.500738 L 5.999841 25.500738 M 7.000757 25.500738 L 7.998845 25.500738 M 8.999761 25.500738 L 10.000677 25.500738 M 10.998766 25.500738 L 11.999682 25.500738 M 13.000598 25.500738 L 16.998607 25.500738 M 17.999523 25.500738 L 19.000439 25.500738 M 20.001355 25.500738 L 26.999284 25.500738 M 28.0002 25.500738 L 29.999205 25.500738 M 1.000916 26.498827 L 1.999004 26.498827 M 2.99992 26.498827 L 5.999841 26.498827 M 7.000757 26.498827 L 7.998845 26.498827 M 10.000677 26.498827 L 10.998766 26.498827 M 11.999682 26.498827 L 13.998686 26.498827 M 20.001355 26.498827 L 20.999443 26.498827 M 22.000359 26.498827 L 23.001275 26.498827 M 28.0002 26.498827 L 29.001116 26.498827 M 1.000916 27.499743 L 1.999004 27.499743 M 2.99992 27.499743 L 5.999841 27.499743 M 7.000757 27.499743 L 7.998845 27.499743 M 10.000677 27.499743 L 10.998766 27.499743 M 14.999602 27.499743 L 20.001355 27.499743 M 22.000359 27.499743 L 23.001275 27.499743 M 26.001196 27.499743 L 29.999205 27.499743 M 1.000916 28.500659 L 1.999004 28.500659 M 7.000757 28.500659 L 7.998845 28.500659 M 16.000518 28.500659 L 16.998607 28.500659 M 17.999523 28.500659 L 20.001355 28.500659 M 20.999443 28.500659 L 22.000359 28.500659 M 23.999364 28.500659 L 26.999284 28.500659 M 28.0002 28.500659 L 29.999205 28.500659 M 1.000916 29.498747 L 7.998845 29.498747 M 8.999761 29.498747 L 10.998766 29.498747 M 11.999682 29.498747 L 13.000598 29.498747 M 13.998686 29.498747 L 16.000518 29.498747 M 16.998607 29.498747 L 19.000439 29.498747 M 20.999443 29.498747 L 23.999364 29.498747 M 25.00028 29.498747 L 26.999284 29.498747 M 28.0002 29.498747 L 29.001116 29.498747 " stroke="#297ae2" stroke-width="1" stroke-opacity="1" stroke-miterlimit="4"/></g></g></g></svg>